<svg width="512" height="512" viewBox="0 0 512 512" fill="none" xmlns="http://www.w3.org/2000/svg" role="img" aria-labelledby="title desc">
  <title id="title">Oh My PRD App Mark</title>
  <desc id="desc">A square glassmorphism app mark for Oh My PRD, using teal AI nodes and a structured PRD symbol.</desc>
  <defs>
    <linearGradient id="brandGradient" x1="151" y1="116" x2="384" y2="390" gradientUnits="userSpaceOnUse">
      <stop offset="0" stop-color="#FFFFFF" stop-opacity="0.95"/>
      <stop offset="0.18" stop-color="#82F6FF" stop-opacity="0.98"/>
      <stop offset="0.48" stop-color="#14AEC2"/>
      <stop offset="0.78" stop-color="#0E6A78"/>
      <stop offset="1" stop-color="#062D36"/>
    </linearGradient>
    <linearGradient id="glassPanel" x1="76" y1="65" x2="432" y2="438" gradientUnits="userSpaceOnUse">
      <stop offset="0" stop-color="#FFFFFF" stop-opacity="0.38"/>
      <stop offset="0.26" stop-color="#BDF9FF" stop-opacity="0.18"/>
      <stop offset="0.6" stop-color="#14AEC2" stop-opacity="0.16"/>
      <stop offset="1" stop-color="#041A21" stop-opacity="0.64"/>
    </linearGradient>
    <linearGradient id="rimGradient" x1="89" y1="69" x2="420" y2="428" gradientUnits="userSpaceOnUse">
      <stop offset="0" stop-color="#FFFFFF" stop-opacity="0.92"/>
      <stop offset="0.24" stop-color="#8EF8FF" stop-opacity="0.86"/>
      <stop offset="0.56" stop-color="#14AEC2" stop-opacity="0.72"/>
      <stop offset="1" stop-color="#0A4550" stop-opacity="0.84"/>
    </linearGradient>
    <radialGradient id="aura" cx="0" cy="0" r="1" gradientUnits="userSpaceOnUse" gradientTransform="translate(256 256) rotate(90) scale(218 218)">
      <stop offset="0" stop-color="#51F1FF" stop-opacity="0.45"/>
      <stop offset="0.45" stop-color="#14AEC2" stop-opacity="0.18"/>
      <stop offset="1" stop-color="#14AEC2" stop-opacity="0"/>
    </radialGradient>
    <filter id="softShadow" x="0" y="0" width="512" height="512" filterUnits="userSpaceOnUse" color-interpolation-filters="sRGB">
      <feDropShadow dx="0" dy="34" stdDeviation="34" flood-color="#00151A" flood-opacity="0.46"/>
      <feDropShadow dx="0" dy="0" stdDeviation="24" flood-color="#14AEC2" flood-opacity="0.18"/>
    </filter>
    <filter id="innerGlow" x="94" y="85" width="335" height="335" filterUnits="userSpaceOnUse" color-interpolation-filters="sRGB">
      <feGaussianBlur stdDeviation="11" result="blur"/>
      <feColorMatrix in="blur" type="matrix" values="0 0 0 0 0.078 0 0 0 0 0.682 0 0 0 0 0.761 0 0 0 0.58 0" result="glow"/>
      <feBlend in="SourceGraphic" in2="glow" mode="screen"/>
    </filter>
    <filter id="lineGlow" x="80" y="80" width="350" height="350" filterUnits="userSpaceOnUse" color-interpolation-filters="sRGB">
      <feGaussianBlur stdDeviation="3" result="blur"/>
      <feColorMatrix in="blur" type="matrix" values="0 0 0 0 0.078 0 0 0 0 0.682 0 0 0 0 0.761 0 0 0 0.8 0" result="glow"/>
      <feBlend in="SourceGraphic" in2="glow" mode="screen"/>
    </filter>
    <clipPath id="panelClip"><rect x="82" y="68" width="348" height="348" rx="88"/></clipPath>
  </defs>

  <g>
    <circle cx="256" cy="256" r="214" fill="url(#aura)"/>
    <rect x="82" y="68" width="348" height="348" rx="88" fill="url(#glassPanel)" stroke="url(#rimGradient)" stroke-width="2.2"/>
    <rect x="101" y="87" width="310" height="310" rx="72" fill="#071E25" fill-opacity="0.32" stroke="#FFFFFF" stroke-opacity="0.12"/>
    <g clip-path="url(#panelClip)" opacity="0.92">
      <path d="M80 132C135 80 193 98 236 151C279 204 354 184 434 112V68H80V132Z" fill="white" fill-opacity="0.16"/>
      <path d="M65 391C127 298 207 300 271 338C329 372 383 354 446 296V430H65V391Z" fill="#14AEC2" fill-opacity="0.14"/>
      <path d="M135 68L423 356" stroke="#FFFFFF" stroke-opacity="0.08" stroke-width="38"/>
      <path d="M66 324L321 69" stroke="#14AEC2" stroke-opacity="0.1" stroke-width="25"/>
    </g>
    <g filter="url(#innerGlow)">
      <path d="M177 167C177 153.745 187.745 143 201 143H274C320.392 143 358 180.608 358 227C358 273.392 320.392 311 274 311H232V361C232 370.389 224.389 378 215 378H194C184.611 378 177 370.389 177 361V167Z" fill="url(#brandGradient)"/>
      <path d="M233 196H273C289.569 196 303 209.431 303 226C303 242.569 289.569 256 273 256H233V196Z" fill="#051B22" fill-opacity="0.74"/>
      <path d="M233.5 196.5H273C289.292 196.5 302.5 209.708 302.5 226C302.5 242.292 289.292 255.5 273 255.5H233.5V196.5Z" stroke="white" stroke-opacity="0.16"/>
      <rect x="236" y="318" width="100" height="13" rx="6.5" fill="#BFFAFF" fill-opacity="0.78"/>
      <rect x="236" y="345" width="72" height="13" rx="6.5" fill="#14AEC2" fill-opacity="0.72"/>
      <rect x="236" y="291" width="128" height="13" rx="6.5" fill="#E7FEFF" fill-opacity="0.68"/>
    </g>
    <g filter="url(#lineGlow)" stroke-linecap="round">
      <path d="M166 177L128 144" stroke="#A9F7FF" stroke-opacity="0.64" stroke-width="3"/>
      <path d="M336 196L386 161" stroke="#A9F7FF" stroke-opacity="0.54" stroke-width="3"/>
      <path d="M327 343L385 377" stroke="#A9F7FF" stroke-opacity="0.42" stroke-width="3"/>
      <path d="M146 374L184 338" stroke="#A9F7FF" stroke-opacity="0.42" stroke-width="3"/>
      <circle cx="127" cy="143" r="10" fill="#E9FFFF"/>
      <circle cx="127" cy="143" r="17" stroke="#14AEC2" stroke-opacity="0.35"/>
      <circle cx="386" cy="161" r="9" fill="#C5FBFF"/>
      <circle cx="386" cy="161" r="16" stroke="#14AEC2" stroke-opacity="0.28"/>
      <circle cx="385" cy="377" r="8" fill="#7BEFFA"/>
      <circle cx="145" cy="375" r="7.5" fill="#67E7F4"/>
    </g>
    <rect x="83.1" y="69.1" width="345.8" height="345.8" rx="86.9" stroke="white" stroke-opacity="0.18" stroke-width="1.4"/>
  </g>
</svg>
